<svg width="69" height="69" viewBox="0 0 69 69" fill="none" xmlns="http://www.w3.org/2000/svg">
<path d="M34.5 29.6484C41.9429 29.6484 47.9766 23.6148 47.9766 16.1719C47.9766 8.72898 41.9429 2.69531 34.5 2.69531C27.0571 2.69531 21.0234 8.72898 21.0234 16.1719C21.0234 23.6148 27.0571 29.6484 34.5 29.6484Z" stroke="#08FF96" stroke-width="3" stroke-miterlimit="10" stroke-linecap="round" stroke-linejoin="round"/>
<path d="M34.5 66.3051H56.0625C59.0396 66.3051 61.4531 63.8916 61.4531 60.9145C61.4531 49.8619 54.8006 40.3632 45.2812 36.2041V44.7426C45.2812 46.3945 44.5387 47.8725 43.3687 48.8613L36.239 54.8879C35.7696 55.2846 35.1628 55.5238 34.5 55.5238C33.8372 55.5238 33.2304 55.2846 32.761 54.8879L25.6313 48.8613C24.4616 47.8725 23.7188 46.3943 23.7188 44.7426V36.2041" stroke="#08FF96" stroke-width="3" stroke-miterlimit="10" stroke-linecap="round" stroke-linejoin="round"/>
<path d="M23.7188 36.2041C14.1994 40.3632 7.54688 49.8619 7.54688 60.9145C7.54688 63.8916 9.96039 66.3051 12.9375 66.3051H34.5" stroke="#08FF96" stroke-width="3" stroke-miterlimit="10" stroke-linecap="round" stroke-linejoin="round"/>
<path d="M34.5 39.3516V44.7422" stroke="#08FF96" stroke-width="3" stroke-miterlimit="10" stroke-linecap="round" stroke-linejoin="round"/>
<path d="M34.5 55.5234V66.3047" stroke="#08FF96" stroke-width="3" stroke-miterlimit="10" stroke-linecap="round" stroke-linejoin="round"/>
</svg>
