<svg width="21" height="25" viewBox="0 0 21 25" fill="none" xmlns="http://www.w3.org/2000/svg">
<g clip-path="url(#clip0_5_77)">
<path d="M18.75 3.58301H16.5V1.14551C16.5 0.834867 16.2481 0.583008 15.9375 0.583008H14.0625C13.7519 0.583008 13.5 0.834867 13.5 1.14551V3.58301H7.5V1.14551C7.5 0.834867 7.24814 0.583008 6.9375 0.583008H5.0625C4.75186 0.583008 4.5 0.834867 4.5 1.14551V3.58301H2.25C1.00734 3.58301 0 4.59035 0 5.83301V22.333C0 23.5757 1.00734 24.583 2.25 24.583H18.75C19.9927 24.583 21 23.5757 21 22.333V5.83301C21 4.59035 19.9927 3.58301 18.75 3.58301ZM18.4688 22.333H2.53125C2.45666 22.333 2.38512 22.3034 2.33238 22.2506C2.27963 22.1979 2.25 22.1264 2.25 22.0518V8.08301H18.75V22.0518C18.75 22.1264 18.7204 22.1979 18.6676 22.2506C18.6149 22.3034 18.5433 22.333 18.4688 22.333ZM15.9915 12.9275L9.32072 19.5448C9.10017 19.7636 8.74402 19.7622 8.5252 19.5416L5.00531 15.9933C4.78655 15.7727 4.78795 15.4166 5.0085 15.1977L6.07345 14.1414C6.294 13.9226 6.65016 13.924 6.86892 14.1446L8.9363 16.2287L14.1428 11.064C14.3633 10.8452 14.7195 10.8466 14.9383 11.0672L15.9947 12.1321C16.2135 12.3526 16.212 12.7088 15.9915 12.9275Z" fill="#08FF96"/>
</g>
<defs>
<clipPath id="clip0_5_77">
<rect width="21" height="24" fill="white" transform="translate(0 0.583008)"/>
</clipPath>
</defs>
</svg>
