<svg width="23" height="24" viewBox="0 0 23 24" fill="none" xmlns="http://www.w3.org/2000/svg">
<g clip-path="url(#clip0_5_72)">
<path d="M1.0151 15.9246C0.204085 17.7905 0.00530628 19.6404 5.52359e-06 20.9974C-0.00264485 22.1689 0.94884 23.1177 2.12031 23.1177H11.606H20.8797C22.0511 23.1177 23.0026 22.1689 23 20.9974C22.9973 19.6404 22.7959 17.7905 21.9875 15.9246C20.4159 12.3042 17.572 8.35777 14.593 6.45215H11.606H8.407C5.42798 8.35777 2.58412 12.3042 1.0151 15.9246ZM12.9816 15.8265C12.6662 15.4396 12.1255 15.2753 11.6378 15.1639C11.0336 15.0261 10.4902 14.8883 9.94422 14.5835C9.59437 14.3874 9.31873 14.1118 9.1279 13.7646C8.93973 13.42 8.84431 13.0225 8.84431 12.5878C8.84431 11.8112 9.1226 11.1751 9.67388 10.6928C9.99988 10.4065 10.4451 10.2077 10.9487 10.1176V9.69356C10.9487 9.40732 11.1819 9.17674 11.4655 9.17674H11.7465C12.0327 9.17674 12.2633 9.40997 12.2633 9.69356V10.1229C12.7298 10.213 13.1459 10.3959 13.456 10.6556C13.7873 10.9286 14.0285 11.2785 14.1769 11.6919C14.2855 11.9967 14.0868 12.328 13.7634 12.3758L13.4904 12.4155C13.2439 12.4526 13.0028 12.3068 12.9232 12.071C12.857 11.8775 12.7695 11.7184 12.6609 11.5966C12.4144 11.3183 12.0248 11.1619 11.5928 11.1619C11.1342 11.1619 10.6996 11.3421 10.4319 11.6416C10.2119 11.8881 10.1059 12.1717 10.1059 12.5083C10.1059 12.8369 10.1987 13.1179 10.3815 13.3352C10.7632 13.7937 11.3886 13.921 11.9929 14.0429C12.3455 14.1144 12.7112 14.1886 13.0266 14.3264C13.3632 14.4749 13.6441 14.6604 13.8588 14.8751C14.0735 15.0898 14.2431 15.3495 14.3597 15.6463C14.4737 15.9406 14.5346 16.2639 14.5346 16.6084C14.5346 17.3611 14.2908 17.9972 13.8111 18.5034C13.4162 18.9169 12.8808 19.1925 12.2633 19.3012V19.614C12.2633 19.9002 12.03 20.1308 11.7465 20.1308H11.4655C11.1793 20.1308 10.9487 19.8976 10.9487 19.614V19.288C10.6094 19.2244 10.2834 19.113 9.99187 18.9646C9.64732 18.7871 9.34783 18.4982 9.09872 18.1059C8.93172 17.8435 8.81246 17.5414 8.73825 17.2021C8.67729 16.9159 8.86811 16.6376 9.157 16.5872L9.43797 16.5395C9.70566 16.4918 9.96275 16.6588 10.029 16.9212C10.1085 17.2313 10.2145 17.4725 10.3471 17.6421C10.6439 18.0237 11.1342 18.2517 11.659 18.2517C11.7491 18.2517 11.8366 18.2437 11.924 18.2331C12.3004 18.1774 12.6343 17.9999 12.8702 17.7322C13.1167 17.4513 13.2413 17.0961 13.2413 16.68C13.2413 16.3222 13.1539 16.0359 12.9816 15.8265Z" fill="#08FF96"/>
<path d="M11.6113 1.04785H11.606L7.56417 1.05845C6.82471 1.0611 6.38475 1.88537 6.79556 2.50026L8.60842 5.21955H11.606H11.6166H14.6142L16.427 2.50026C16.8378 1.88537 16.3978 1.0611 15.6584 1.05845L11.6166 1.04785H11.6113Z" fill="#08FF96"/>
</g>
<defs>
<clipPath id="clip0_5_72">
<rect width="23" height="23" fill="white" transform="translate(0 0.583008)"/>
</clipPath>
</defs>
</svg>
