<svg width="199" height="199" viewBox="0 0 199 199" fill="none" xmlns="http://www.w3.org/2000/svg">
<path d="M198.771 99.3829C198.771 154.274 154.273 198.768 99.385 198.768C44.497 198.768 0 154.274 0 99.3829C0 44.4949 44.497 0 99.385 0C154.273 0 198.771 44.4949 198.771 99.3829Z" fill="#08FF96"/>
<path d="M99.4838 190.219H99.3848C97.2648 190.219 95.1208 190.144 93.0088 190C92.5678 189.969 92.2348 189.585 92.2638 189.144C92.2958 188.703 92.6738 188.357 93.1178 188.399C95.1948 188.544 97.3028 188.618 99.3848 188.618C99.8258 188.618 100.237 188.974 100.237 189.419C100.237 189.864 99.9248 190.219 99.4838 190.219ZM105.9 189.988C105.485 189.988 105.134 189.666 105.102 189.24C105.073 188.802 105.405 188.419 105.847 188.386C107.946 188.237 110.076 188.005 112.172 187.707C112.601 187.651 113.018 187.947 113.082 188.386C113.143 188.824 112.84 189.232 112.4 189.293C110.267 189.602 108.096 189.83 105.958 189.984C105.94 189.988 105.921 189.988 105.9 189.988ZM86.6779 189.33C86.6409 189.33 86.6038 189.324 86.5668 189.319C84.4278 189.021 82.2818 188.638 80.1818 188.186C79.7508 188.092 79.4747 187.665 79.5677 187.234C79.6618 186.802 80.0948 186.526 80.5198 186.619C82.5838 187.063 84.6888 187.438 86.7878 187.734C87.2258 187.795 87.5328 188.202 87.4688 188.638C87.4147 189.04 87.0709 189.33 86.6779 189.33ZM118.613 188.159C118.24 188.159 117.911 187.904 117.828 187.531C117.735 187.095 118.009 186.67 118.44 186.574C120.506 186.127 122.582 185.595 124.608 184.999C125.032 184.877 125.478 185.116 125.6 185.545C125.728 185.968 125.483 186.414 125.058 186.537C122.996 187.146 120.884 187.685 118.78 188.143C118.724 188.155 118.665 188.159 118.613 188.159ZM74.1248 186.627C74.0538 186.627 73.9768 186.617 73.9008 186.596C71.8418 185.994 69.7728 185.308 67.7488 184.558C67.3368 184.404 67.1238 183.941 67.2778 183.529C67.4318 183.114 67.8888 182.901 68.3068 183.055C70.2938 183.792 72.3288 184.468 74.3478 185.058C74.7738 185.181 75.0178 185.627 74.8928 186.05C74.7928 186.402 74.4738 186.627 74.1248 186.627ZM130.926 184.539C130.601 184.539 130.295 184.34 130.176 184.018C130.019 183.603 130.232 183.143 130.647 182.989C132.618 182.25 134.594 181.43 136.517 180.548C136.913 180.364 137.392 180.537 137.579 180.944C137.766 181.346 137.587 181.822 137.185 182.006C135.227 182.905 133.216 183.74 131.206 184.49C131.114 184.524 131.019 184.539 130.926 184.539ZM62.0858 182.154C61.9738 182.154 61.8618 182.133 61.7528 182.085C59.8038 181.196 57.8508 180.218 55.9508 179.183C55.5628 178.973 55.4198 178.484 55.6298 178.095C55.8428 177.706 56.3288 177.569 56.7178 177.776C58.5848 178.793 60.5028 179.753 62.4178 180.623C62.8198 180.809 62.9978 181.282 62.8138 181.686C62.6788 181.981 62.3888 182.154 62.0858 182.154ZM142.587 179.196C142.303 179.196 142.028 179.047 141.882 178.781C141.67 178.392 141.813 177.906 142.201 177.693C144.05 176.679 145.889 175.587 147.668 174.44C148.037 174.198 148.538 174.306 148.774 174.676C149.016 175.048 148.91 175.546 148.538 175.785C146.726 176.955 144.853 178.067 142.971 179.099C142.851 179.166 142.718 179.196 142.587 179.196ZM50.8048 176.003C50.6558 176.003 50.5038 175.961 50.3708 175.875C48.5718 174.716 46.7788 173.474 45.0448 172.178C44.6888 171.914 44.6167 171.412 44.8807 171.058C45.1437 170.702 45.6468 170.63 46.0028 170.896C47.7078 172.167 49.4668 173.391 51.2378 174.525C51.6098 174.766 51.7187 175.264 51.4797 175.633C51.3257 175.87 51.0678 176.003 50.8048 176.003ZM153.374 172.242C153.129 172.242 152.887 172.133 152.729 171.923C152.466 171.569 152.538 171.067 152.892 170.8C154.578 169.534 156.246 168.188 157.842 166.802C158.177 166.512 158.68 166.547 158.975 166.882C159.262 167.217 159.228 167.723 158.896 168.012C157.267 169.425 155.573 170.795 153.852 172.082C153.709 172.192 153.539 172.242 153.374 172.242ZM40.5178 168.311C40.3318 168.311 40.1428 168.247 39.9918 168.114C38.3638 166.707 36.7678 165.222 35.2468 163.704C34.9298 163.392 34.9298 162.888 35.2408 162.573C35.5548 162.257 36.0648 162.26 36.3768 162.57C37.8718 164.06 39.4408 165.518 41.0428 166.906C41.3758 167.194 41.4128 167.699 41.1228 168.034C40.9648 168.217 40.7408 168.311 40.5178 168.311ZM163.067 163.831C162.863 163.831 162.658 163.751 162.504 163.597C162.191 163.284 162.191 162.775 162.504 162.463C163.999 160.963 165.457 159.394 166.84 157.801C167.13 157.468 167.638 157.431 167.971 157.718C168.306 158.011 168.343 158.516 168.05 158.851C166.646 160.474 165.159 162.07 163.635 163.594C163.477 163.751 163.275 163.831 163.067 163.831ZM31.4258 159.244C31.1988 159.244 30.9788 159.151 30.8198 158.968C29.4078 157.346 28.0348 155.649 26.7448 153.936C26.4788 153.58 26.5509 153.079 26.9019 152.813C27.2529 152.547 27.7578 152.617 28.0238 152.97C29.2948 154.657 30.6408 156.319 32.0298 157.917C32.3198 158.25 32.2858 158.758 31.9508 159.048C31.7978 159.181 31.6128 159.244 31.4258 159.244ZM171.481 154.127C171.311 154.127 171.143 154.073 171 153.965C170.646 153.701 170.574 153.195 170.838 152.845C172.107 151.153 173.33 149.392 174.477 147.613C174.714 147.243 175.211 147.136 175.583 147.374C175.956 147.613 176.062 148.11 175.823 148.483C174.657 150.292 173.413 152.085 172.123 153.803C171.962 154.015 171.72 154.127 171.481 154.127ZM23.7087 148.988C23.4477 148.988 23.1878 148.858 23.0358 148.621C21.8708 146.82 20.7538 144.948 19.7168 143.059C19.5038 142.673 19.6448 142.184 20.0328 141.971C20.4208 141.758 20.9049 141.899 21.1208 142.287C22.1398 144.141 23.2378 145.981 24.3818 147.751C24.6208 148.12 24.5148 148.618 24.1458 148.859C24.0098 148.946 23.8577 148.988 23.7087 148.988ZM178.432 143.322C178.301 143.322 178.171 143.291 178.049 143.226C177.66 143.013 177.517 142.524 177.73 142.135C178.746 140.279 179.706 138.364 180.584 136.44C180.771 136.039 181.247 135.861 181.648 136.044C182.049 136.23 182.225 136.703 182.044 137.107C181.148 139.065 180.168 141.015 179.137 142.906C178.99 143.173 178.716 143.322 178.432 143.322ZM17.5317 137.741C17.2257 137.741 16.9389 137.571 16.8029 137.276C15.9069 135.326 15.0687 133.315 14.3127 131.301C14.1557 130.886 14.3667 130.423 14.7817 130.266C15.1907 130.115 15.6568 130.323 15.8138 130.735C16.5558 132.716 17.3797 134.693 18.2607 136.608C18.4437 137.007 18.2688 137.486 17.8658 137.667C17.7588 137.72 17.6447 137.741 17.5317 137.741ZM183.773 131.633C183.68 131.633 183.587 131.617 183.494 131.585C183.079 131.429 182.866 130.969 183.023 130.553C183.76 128.569 184.438 126.537 185.032 124.51C185.154 124.09 185.593 123.839 186.026 123.967C186.45 124.092 186.694 124.536 186.569 124.962C185.963 127.026 185.276 129.096 184.526 131.112C184.406 131.437 184.1 131.633 183.773 131.633ZM13.0238 125.728C12.6778 125.728 12.3588 125.505 12.2548 125.154C11.6428 123.085 11.1008 120.972 10.6458 118.877C10.5498 118.445 10.8238 118.018 11.2568 117.925C11.6958 117.823 12.1128 118.106 12.2098 118.536C12.6588 120.593 13.1907 122.67 13.7917 124.702C13.9167 125.125 13.6758 125.572 13.2498 125.697C13.1748 125.717 13.0978 125.728 13.0238 125.728ZM187.385 119.312C187.329 119.312 187.271 119.307 187.215 119.296C186.781 119.2 186.508 118.775 186.601 118.344C187.047 116.269 187.425 114.162 187.721 112.076C187.782 111.64 188.2 111.337 188.627 111.395C189.066 111.458 189.372 111.863 189.309 112.302C189.008 114.427 188.622 116.572 188.167 118.678C188.088 119.057 187.752 119.312 187.385 119.312ZM10.2788 113.189C9.88781 113.189 9.54484 112.902 9.48584 112.502C9.17684 110.374 8.94379 108.203 8.78979 106.06C8.75779 105.619 9.09074 105.233 9.53174 105.204C9.96574 105.161 10.3558 105.502 10.3878 105.943C10.5418 108.049 10.7708 110.18 11.0748 112.271C11.1378 112.71 10.8348 113.117 10.3958 113.178C10.3588 113.186 10.3188 113.189 10.2788 113.189ZM189.195 106.605C189.174 106.605 189.157 106.602 189.136 106.602C188.697 106.571 188.362 106.188 188.394 105.747C188.542 103.635 188.618 101.496 188.618 99.3838V98.9899C188.618 98.5479 188.974 98.1858 189.419 98.1858C189.86 98.1858 190.219 98.5469 190.219 98.9899L190.222 99.3778C190.222 101.53 190.145 103.709 189.993 105.858C189.963 106.281 189.612 106.605 189.195 106.605ZM9.34985 100.383C8.90685 100.383 8.54883 100.027 8.54883 99.5789V99.3828C8.54883 97.3078 8.62077 95.1948 8.75977 93.1108C8.78877 92.6668 9.17484 92.3438 9.61584 92.3638C10.0568 92.3928 10.3898 92.7758 10.3608 93.2178C10.2188 95.2688 10.1498 97.3438 10.1498 99.3838V99.5798C10.1508 100.027 9.79385 100.383 9.34985 100.383ZM189.162 93.3708C188.747 93.3708 188.396 93.0518 188.364 92.6318C188.207 90.5198 187.97 88.3919 187.662 86.3029C187.598 85.8649 187.904 85.4568 188.34 85.3938C188.79 85.3248 189.186 85.6298 189.253 86.0698C189.564 88.1948 189.803 90.3658 189.963 92.5088C189.995 92.9528 189.665 93.3358 189.224 93.3708C189.202 93.3708 189.181 93.3708 189.162 93.3708ZM10.2278 87.5768C10.1908 87.5768 10.1538 87.5718 10.1138 87.5658C9.67677 87.5068 9.37174 87.1009 9.43274 86.6619C9.73074 84.5389 10.1088 82.3918 10.5608 80.2828C10.6538 79.8468 11.0868 79.5698 11.5098 79.6658C11.9438 79.7568 12.2208 80.1828 12.1268 80.6188C11.6858 82.6898 11.3138 84.7999 11.0208 86.8859C10.9618 87.2849 10.6208 87.5768 10.2278 87.5768ZM187.3 80.6719C186.928 80.6719 186.601 80.4158 186.516 80.0408C186.064 77.9848 185.526 75.9129 184.919 73.8809C184.794 73.4579 185.033 73.0108 185.459 72.8828C185.891 72.7558 186.329 72.9998 186.457 73.4208C187.074 75.4918 187.619 77.6019 188.082 79.6979C188.178 80.1289 187.904 80.5538 187.471 80.6498C187.414 80.6658 187.356 80.6719 187.3 80.6719ZM12.9117 75.0219C12.8397 75.0219 12.7627 75.0118 12.6877 74.9908C12.2647 74.8678 12.0168 74.4248 12.1418 73.9988C12.7438 71.9268 13.4268 69.8558 14.1718 67.8428C14.3288 67.4308 14.7859 67.2178 15.2039 67.3718C15.6189 67.5258 15.8288 67.9868 15.6768 68.3988C14.9438 70.3778 14.2727 72.4108 13.6827 74.4448C13.5817 74.7928 13.2597 75.0219 12.9117 75.0219ZM183.635 68.3668C183.31 68.3668 183.004 68.1708 182.885 67.8508C182.14 65.8768 181.313 63.9029 180.427 61.9849C180.24 61.5839 180.413 61.1078 180.815 60.9238C181.219 60.7368 181.693 60.9098 181.882 61.3118C182.783 63.2648 183.627 65.2729 184.385 67.2819C184.542 67.6969 184.331 68.1598 183.916 68.3138C183.823 68.3508 183.728 68.3668 183.635 68.3668ZM17.3748 62.9768C17.2638 62.9768 17.1488 62.9538 17.0428 62.9028C16.6418 62.7218 16.4598 62.2469 16.6438 61.8439C17.5388 59.8749 18.5118 57.9229 19.5388 56.0369C19.7518 55.6479 20.2408 55.5048 20.6268 55.7178C21.0158 55.9278 21.1588 56.4168 20.9458 56.8058C19.9378 58.6578 18.9827 60.5729 18.1047 62.5059C17.9687 62.8019 17.6788 62.9768 17.3748 62.9768ZM178.253 56.7258C177.971 56.7258 177.697 56.5778 177.551 56.3108C176.532 54.4678 175.434 52.6318 174.28 50.8528C174.038 50.4828 174.144 49.9858 174.514 49.7468C174.883 49.5078 175.381 49.6078 175.622 49.9808C176.798 51.7918 177.918 53.6628 178.953 55.5348C179.168 55.9238 179.027 56.4129 178.639 56.6259C178.517 56.6949 178.384 56.7258 178.253 56.7258ZM23.5118 51.6879C23.3658 51.6879 23.2138 51.6509 23.0808 51.5629C22.7088 51.3269 22.5997 50.8288 22.8387 50.4568C24.0017 48.6408 25.2438 46.8478 26.5278 45.1238C26.7918 44.7678 27.2918 44.6978 27.6478 44.9618C28.0038 45.2278 28.0768 45.7308 27.8098 46.0808C26.5488 47.7728 25.3308 49.5368 24.1868 51.3208C24.0358 51.5608 23.7758 51.6879 23.5118 51.6879ZM171.266 45.9608C171.021 45.9608 170.784 45.8518 170.627 45.6448C169.345 43.9528 167.996 42.2908 166.61 40.7028C166.317 40.3728 166.351 39.8638 166.684 39.5748C167.017 39.2818 167.522 39.3138 167.817 39.6488C169.227 41.2628 170.6 42.9558 171.903 44.6758C172.172 45.0278 172.1 45.5318 171.749 45.7988C171.604 45.9078 171.433 45.9608 171.266 45.9608ZM31.1918 41.3938C31.0058 41.3938 30.8198 41.3298 30.6708 41.1998C30.3358 40.9098 30.2988 40.4048 30.5858 40.0688C31.9878 38.4468 33.4728 36.8448 34.9938 35.3158C35.3058 34.9988 35.8128 34.9989 36.1268 35.3129C36.4408 35.6259 36.4408 36.1318 36.1298 36.4458C34.6348 37.9488 33.1768 39.5208 31.8018 41.1178C31.6418 41.3008 31.4178 41.3938 31.1918 41.3938ZM162.817 36.2908C162.616 36.2908 162.411 36.2138 162.254 36.0598C160.754 34.5678 159.179 33.1158 157.58 31.7378C157.242 31.4478 157.205 30.9399 157.495 30.6049C157.785 30.2699 158.29 30.2318 158.626 30.5219C160.254 31.9239 161.855 33.4059 163.385 34.9219C163.696 35.2329 163.701 35.7398 163.387 36.0548C163.23 36.2118 163.025 36.2908 162.817 36.2908ZM40.2518 32.2908C40.0248 32.2908 39.8048 32.1998 39.6458 32.0168C39.3558 31.6838 39.3898 31.1789 39.7228 30.8859C41.3398 29.4769 43.0317 28.1038 44.7557 26.8058C45.1037 26.5388 45.6098 26.6088 45.8778 26.9628C46.1438 27.3168 46.0748 27.8168 45.7208 28.0848C44.0298 29.3588 42.3648 30.7109 40.7788 32.0939C40.6268 32.2269 40.4388 32.2908 40.2518 32.2908ZM153.086 27.9119C152.919 27.9119 152.751 27.8608 152.607 27.7528C150.913 26.4918 149.149 25.2758 147.364 24.1348C146.992 23.8958 146.883 23.4008 147.123 23.0288C147.359 22.6538 147.856 22.5498 148.229 22.7838C150.042 23.9438 151.838 25.1858 153.565 26.4718C153.921 26.7348 153.996 27.2378 153.73 27.5908C153.571 27.8008 153.331 27.9119 153.086 27.9119ZM50.4978 24.5658C50.2378 24.5658 49.9788 24.4358 49.8248 24.1998C49.5858 23.8268 49.6918 23.3328 50.0638 23.0928C51.8678 21.9228 53.7348 20.8058 55.6218 19.7688C56.0048 19.5558 56.4968 19.6938 56.7098 20.0818C56.9248 20.4708 56.7808 20.9568 56.3938 21.1698C54.5448 22.1908 52.7058 23.2898 50.9348 24.4398C50.7988 24.5238 50.6508 24.5658 50.4978 24.5658ZM142.26 20.9958C142.13 20.9958 141.999 20.9638 141.877 20.8998C140.021 19.8888 138.1 18.9368 136.174 18.0638C135.77 17.8798 135.591 17.4048 135.772 17.0018C135.956 16.5958 136.435 16.4198 136.834 16.6008C138.798 17.4918 140.753 18.4629 142.644 19.4899C143.033 19.7029 143.176 20.1868 142.966 20.5758C142.819 20.8448 142.545 20.9958 142.26 20.9958ZM61.7378 18.3759C61.4338 18.3759 61.1448 18.2028 61.0088 17.9098C60.8248 17.5058 60.9998 17.0318 61.4028 16.8468C63.3518 15.9478 65.3608 15.1068 67.3748 14.3518C67.7838 14.1918 68.2527 14.4018 68.4067 14.8168C68.5627 15.2318 68.3527 15.6919 67.9377 15.8489C65.9607 16.5939 63.9878 17.4178 62.0728 18.3018C61.9628 18.3518 61.8488 18.3759 61.7378 18.3759ZM130.553 15.6918C130.463 15.6918 130.369 15.6758 130.277 15.6438C128.3 14.9128 126.268 14.2458 124.231 13.6548C123.805 13.5328 123.56 13.0888 123.682 12.6658C123.805 12.2398 124.251 11.9948 124.674 12.1178C126.749 12.7158 128.821 13.3968 130.832 14.1388C131.247 14.2928 131.46 14.7558 131.306 15.1708C131.186 15.4918 130.88 15.6918 130.553 15.6918ZM73.7448 13.8538C73.3978 13.8538 73.0799 13.6278 72.9749 13.2828C72.8499 12.8568 73.0918 12.4098 73.5178 12.2848C75.5798 11.6758 77.6888 11.1308 79.7928 10.6678C80.2309 10.5688 80.6518 10.8469 80.7478 11.2769C80.8438 11.7069 80.5687 12.1378 80.1357 12.2318C78.0697 12.6858 75.9968 13.2239 73.9728 13.8229C73.8968 13.8459 73.8218 13.8538 73.7448 13.8538ZM118.224 12.1268C118.168 12.1268 118.113 12.1188 118.054 12.1058C115.997 11.6688 113.888 11.2968 111.786 11.0038C111.348 10.9448 111.041 10.5409 111.102 10.0999C111.161 9.66285 111.573 9.34982 112.006 9.41882C114.148 9.71682 116.294 10.0938 118.388 10.5378C118.822 10.6318 119.098 11.0568 119.005 11.4878C118.926 11.8668 118.594 12.1268 118.224 12.1268ZM86.2838 11.0978C85.8898 11.0978 85.5498 10.8109 85.4888 10.4119C85.4268 9.97287 85.7298 9.56776 86.1698 9.50476C88.2928 9.19276 90.4608 8.95687 92.6088 8.79688C93.0478 8.75987 93.4338 9.09477 93.4658 9.53577C93.4998 9.97777 93.1668 10.3628 92.7288 10.3948C90.6148 10.5518 88.4858 10.7869 86.4008 11.0889C86.3618 11.0959 86.3208 11.0978 86.2838 11.0978ZM105.509 10.3558C105.49 10.3558 105.469 10.3558 105.453 10.3558C103.449 10.2178 101.406 10.1519 99.3848 10.1519L99.0868 10.1538C98.6458 10.1538 98.2858 9.79283 98.2858 9.35083C98.2858 8.90883 98.6448 8.54688 99.0868 8.54688H99.3768C101.444 8.54688 103.522 8.61878 105.559 8.75378C106.003 8.78578 106.336 9.16684 106.307 9.61084C106.278 10.0318 105.926 10.3558 105.509 10.3558Z" fill="#141414"/>
<path d="M24.4754 91V76.15H33.0114C34.6614 76.15 35.7651 76.5937 36.3224 77.481C36.8798 78.3683 37.1584 79.439 37.1584 80.693C37.1584 81.925 36.8651 82.9627 36.2784 83.806C35.6918 84.6493 34.5514 85.071 32.8574 85.071H28.2264V91H24.4754ZM33.3524 91L30.2064 84.092L33.9134 83.938L37.4114 91H33.3524ZM28.2264 82.783H31.7794C32.3954 82.783 32.8208 82.607 33.0554 82.255C33.2901 81.8957 33.4074 81.3897 33.4074 80.737C33.4074 80.0917 33.2901 79.5893 33.0554 79.23C32.8208 78.8707 32.3954 78.691 31.7794 78.691H28.2264V82.783ZM45.4439 91.132C42.9799 91.132 41.2529 90.538 40.2629 89.35C39.2802 88.1547 38.7889 86.5303 38.7889 84.477C38.7889 82.3723 39.2839 80.7407 40.2739 79.582C41.2639 78.416 42.9652 77.833 45.3779 77.833C47.8492 77.833 49.5579 78.4233 50.5039 79.604C51.4572 80.7847 51.9339 82.4053 51.9339 84.466C51.9339 84.8767 51.9082 85.2433 51.8569 85.566H42.0229V83.333H48.4029L48.2709 83.663C48.2709 82.409 48.0142 81.5217 47.5009 81.001C46.9949 80.4803 46.2872 80.22 45.3779 80.22C44.4832 80.22 43.7572 80.5023 43.1999 81.067C42.6425 81.6317 42.3639 82.7683 42.3639 84.477C42.3639 86.149 42.6389 87.2783 43.1889 87.865C43.7462 88.4517 44.4979 88.745 45.4439 88.745V91.132ZM45.4439 88.745C45.9939 88.745 46.4485 88.6717 46.8079 88.525C47.1672 88.3783 47.4532 88.1327 47.6659 87.788C47.8859 87.4433 48.0729 87.0363 48.2269 86.567L51.5379 87.502C51.3765 88.36 51.0245 89.053 50.4819 89.581C49.9465 90.109 49.2975 90.5013 48.5349 90.758C47.7795 91.0073 46.7492 91.132 45.4439 91.132V88.745ZM59.7777 96.159C58.1937 96.159 56.8224 95.818 55.6637 95.136C54.505 94.4613 53.8524 93.2953 53.7057 91.638H57.3137C57.3577 92.144 57.4897 92.562 57.7097 92.892C57.937 93.222 58.2377 93.4567 58.6117 93.596C58.993 93.7427 59.422 93.816 59.8987 93.816C60.698 93.816 61.3434 93.629 61.8347 93.255C62.326 92.881 62.5717 92.023 62.5717 90.681V80.528L63.5727 77.965H66.2897V90.296C66.2897 91.814 65.9854 92.9983 65.3767 93.849C64.768 94.707 64.02 95.3047 63.1327 95.642C62.2454 95.9867 61.127 96.159 59.7777 96.159ZM58.4907 91.088C56.7234 91.088 55.4327 90.4977 54.6187 89.317C53.8047 88.1363 53.3977 86.5157 53.3977 84.455C53.3977 82.387 53.7974 80.77 54.5967 79.604C55.396 78.438 56.6794 77.855 58.4467 77.855C60.0087 77.855 61.358 78.229 62.4947 78.977C63.6387 79.725 64.2107 80.539 64.2107 81.419L62.5717 82.937C62.5717 82.2257 62.2894 81.6243 61.7247 81.133C61.1674 80.6343 60.5074 80.385 59.7447 80.385C58.916 80.385 58.2744 80.66 57.8197 81.21C57.365 81.7527 57.1377 82.838 57.1377 84.466C57.1377 86.1087 57.365 87.2013 57.8197 87.744C58.2744 88.2867 58.916 88.558 59.7447 88.558C60.5074 88.558 61.1674 88.3123 61.7247 87.821C62.2894 87.3297 62.5717 86.721 62.5717 85.995L64.2107 87.612C64.2107 88.4993 63.646 89.3023 62.5167 90.021C61.3947 90.7323 60.0527 91.088 58.4907 91.088ZM68.817 91V77.954H72.524V91H68.817ZM68.817 74.038H72.524V76.623H68.817V74.038ZM81.3793 91.11C79.6633 91.11 78.2186 90.8497 77.0453 90.329C75.872 89.8083 75.113 88.9137 74.7683 87.645L78.0023 86.457C78.171 87.205 78.5523 87.766 79.1463 88.14C79.7403 88.514 80.503 88.701 81.4343 88.701C82.2043 88.701 82.802 88.5837 83.2273 88.349C83.6526 88.107 83.8653 87.7733 83.8653 87.348C83.8653 86.7687 83.484 86.3983 82.7213 86.237C81.9586 86.0757 80.9833 85.8997 79.7953 85.709C78.3066 85.4817 77.1113 85.0747 76.2093 84.488C75.3146 83.894 74.8673 82.937 74.8673 81.617C74.8673 80.3263 75.421 79.3767 76.5283 78.768C77.6356 78.1593 79.0876 77.855 80.8843 77.855C82.637 77.855 84.0706 78.1117 85.1853 78.625C86.3 79.131 87.015 80.0037 87.3303 81.243L84.0853 82.409C83.9166 81.7417 83.5463 81.2137 82.9743 80.825C82.4023 80.4363 81.691 80.242 80.8403 80.242C80.041 80.242 79.4506 80.363 79.0693 80.605C78.6953 80.847 78.5083 81.1807 78.5083 81.606C78.5083 82.1633 78.8713 82.5263 79.5973 82.695C80.3233 82.8563 81.2546 83.025 82.3913 83.201C83.8506 83.4137 85.068 83.784 86.0433 84.312C87.026 84.8327 87.5173 85.753 87.5173 87.073C87.5173 88.5177 86.9856 89.5517 85.9223 90.175C84.859 90.7983 83.3446 91.11 81.3793 91.11ZM95.494 91.165C94.3354 91.165 93.3527 90.923 92.546 90.439C91.7467 89.9477 91.347 89.064 91.347 87.788V80.506H88.366V77.965H91.347V74.984H95.054V77.965H99.058V80.506H95.054V86.974C95.054 87.6853 95.2007 88.151 95.494 88.371C95.7947 88.5837 96.2164 88.69 96.759 88.69C97.3017 88.69 97.8334 88.5983 98.354 88.415V90.857C97.4447 91.0623 96.4914 91.165 95.494 91.165ZM109.074 84.389C109.074 82.7463 108.887 81.672 108.513 81.166C108.139 80.6527 107.618 80.396 106.951 80.396C106.174 80.396 105.558 80.6673 105.103 81.21C104.648 81.7453 104.421 82.3613 104.421 83.058L103.002 82.211C103.002 80.979 103.493 79.945 104.476 79.109C105.459 78.2657 106.746 77.844 108.337 77.844C110.06 77.844 111.23 78.3757 111.846 79.439C112.462 80.495 112.77 82.145 112.77 84.389H109.074ZM100.736 91V77.965H103.596L104.432 80.22V91H100.736ZM119.54 91.143C119.027 91.143 118.521 91.1137 118.022 91.055C117.531 90.9963 117.069 90.8863 116.636 90.725C116.204 90.5563 115.822 90.3217 115.492 90.021C115.162 89.7203 114.902 89.3317 114.711 88.855C114.528 88.3783 114.436 87.7953 114.436 87.106C114.436 86.4387 114.528 85.8777 114.711 85.423C114.902 84.961 115.159 84.5833 115.481 84.29C115.804 83.9967 116.178 83.7693 116.603 83.608C117.029 83.4467 117.483 83.3367 117.967 83.278C118.451 83.212 118.943 83.179 119.441 83.179H123.555V82.673C123.555 82.079 123.438 81.6097 123.203 81.265C122.976 80.9203 122.661 80.6783 122.257 80.539C121.861 80.3923 121.414 80.319 120.915 80.319C120.461 80.319 120.046 80.3887 119.672 80.528C119.298 80.6673 118.983 80.8947 118.726 81.21C118.477 81.5253 118.301 81.947 118.198 82.475L114.579 81.463C114.711 80.8103 114.953 80.2567 115.305 79.802C115.665 79.34 116.119 78.966 116.669 78.68C117.227 78.3867 117.861 78.174 118.572 78.042C119.291 77.9027 120.068 77.833 120.904 77.833C122.217 77.833 123.35 77.9907 124.303 78.306C125.257 78.6213 125.99 79.1457 126.503 79.879C127.017 80.6123 127.273 81.6097 127.273 82.871V91H124.193L123.874 89.504C123.786 89.702 123.621 89.9 123.379 90.098C123.137 90.2887 122.826 90.4647 122.444 90.626C122.07 90.78 121.638 90.9047 121.146 91C120.662 91.0953 120.127 91.143 119.54 91.143ZM120.376 88.822C120.736 88.822 121.091 88.789 121.443 88.723C121.803 88.657 122.129 88.5617 122.422 88.437C122.723 88.3123 122.972 88.1657 123.17 87.997C123.368 87.821 123.497 87.6303 123.555 87.425L123.643 85.225H120.31C120.017 85.225 119.742 85.247 119.485 85.291C119.229 85.3277 119.001 85.4083 118.803 85.533C118.613 85.6577 118.462 85.8373 118.352 86.072C118.242 86.3067 118.187 86.6147 118.187 86.996C118.187 87.3847 118.246 87.7 118.363 87.942C118.488 88.1767 118.653 88.36 118.858 88.492C119.071 88.6167 119.306 88.7047 119.562 88.756C119.826 88.8 120.098 88.822 120.376 88.822ZM135.605 91.165C134.447 91.165 133.464 90.923 132.657 90.439C131.858 89.9477 131.458 89.064 131.458 87.788V80.506H128.477V77.965H131.458V74.984H135.165V77.965H139.169V80.506H135.165V86.974C135.165 87.6853 135.312 88.151 135.605 88.371C135.906 88.5837 136.328 88.69 136.87 88.69C137.413 88.69 137.945 88.5983 138.465 88.415V90.857C137.556 91.0623 136.603 91.165 135.605 91.165ZM141.133 91V77.954H144.84V91H141.133ZM141.133 74.038H144.84V76.623H141.133V74.038ZM153.542 91.11C151.151 91.11 149.446 90.5343 148.427 89.383C147.407 88.2243 146.898 86.5707 146.898 84.422C146.898 82.2807 147.407 80.6453 148.427 79.516C149.446 78.3793 151.151 77.811 153.542 77.811C155.925 77.811 157.623 78.3793 158.635 79.516C159.654 80.6453 160.164 82.2807 160.164 84.422C160.164 86.5707 159.654 88.2243 158.635 89.383C157.623 90.5343 155.925 91.11 153.542 91.11ZM153.542 88.602C154.392 88.602 155.093 88.3307 155.643 87.788C156.193 87.2453 156.468 86.1307 156.468 84.444C156.468 82.7647 156.193 81.6573 155.643 81.122C155.093 80.5867 154.392 80.319 153.542 80.319C152.684 80.319 151.98 80.5867 151.43 81.122C150.88 81.6573 150.605 82.7647 150.605 84.444C150.605 86.1307 150.88 87.2453 151.43 87.788C151.98 88.3307 152.684 88.602 153.542 88.602ZM161.967 91V77.965H164.827L165.663 80.165V91H161.967ZM170.47 91V84.092C170.47 82.6473 170.294 81.6683 169.942 81.155C169.59 80.6417 169.047 80.385 168.314 80.385C167.544 80.385 166.887 80.7003 166.345 81.331C165.809 81.9543 165.542 82.7647 165.542 83.762L163.749 82.926C163.749 81.7747 164.299 80.6417 165.399 79.527C166.499 78.405 167.936 77.844 169.711 77.844C171.39 77.844 172.552 78.416 173.198 79.56C173.843 80.6967 174.166 82.189 174.166 84.037V91H170.47ZM60.3306 125V111.954H64.0376V125H60.3306ZM60.3306 108.038H64.0376V110.623H60.3306V108.038ZM72.893 125.11C71.177 125.11 69.7323 124.85 68.559 124.329C67.3856 123.808 66.6266 122.914 66.282 121.645L69.516 120.457C69.6846 121.205 70.066 121.766 70.66 122.14C71.254 122.514 72.0166 122.701 72.948 122.701C73.718 122.701 74.3156 122.584 74.741 122.349C75.1663 122.107 75.379 121.773 75.379 121.348C75.379 120.769 74.9976 120.398 74.235 120.237C73.4723 120.076 72.497 119.9 71.309 119.709C69.8203 119.482 68.625 119.075 67.723 118.488C66.8283 117.894 66.381 116.937 66.381 115.617C66.381 114.326 66.9346 113.377 68.042 112.768C69.1493 112.159 70.6013 111.855 72.398 111.855C74.1506 111.855 75.5843 112.112 76.699 112.625C77.8136 113.131 78.5286 114.004 78.844 115.243L75.599 116.409C75.4303 115.742 75.06 115.214 74.488 114.825C73.916 114.436 73.2046 114.242 72.354 114.242C71.5546 114.242 70.9643 114.363 70.583 114.605C70.209 114.847 70.022 115.181 70.022 115.606C70.022 116.163 70.385 116.526 71.111 116.695C71.837 116.856 72.7683 117.025 73.905 117.201C75.3643 117.414 76.5816 117.784 77.557 118.312C78.5396 118.833 79.031 119.753 79.031 121.073C79.031 122.518 78.4993 123.552 77.436 124.175C76.3726 124.798 74.8583 125.11 72.893 125.11ZM88.5044 125V114.484H85.8424V111.965H88.5264L88.5044 111.525C88.5044 110.132 89.0947 109.134 90.2754 108.533C91.456 107.932 93.1427 107.631 95.3354 107.631H95.7864V110.062H95.4234C94.272 110.062 93.447 110.161 92.9484 110.359C92.4497 110.557 92.2004 110.949 92.2004 111.536L92.1894 111.965H95.7094V114.484H92.2004V125H88.5044ZM105.937 118.389C105.937 116.746 105.75 115.672 105.376 115.166C105.002 114.653 104.482 114.396 103.814 114.396C103.037 114.396 102.421 114.667 101.966 115.21C101.512 115.745 101.284 116.361 101.284 117.058L99.8653 116.211C99.8653 114.979 100.357 113.945 101.339 113.109C102.322 112.266 103.609 111.844 105.2 111.844C106.924 111.844 108.093 112.376 108.709 113.439C109.325 114.495 109.633 116.145 109.633 118.389H105.937ZM97.5993 125V111.965H100.459L101.295 114.22V125H97.5993ZM117.911 125.132C115.447 125.132 113.72 124.538 112.73 123.35C111.747 122.155 111.256 120.53 111.256 118.477C111.256 116.372 111.751 114.741 112.741 113.582C113.731 112.416 115.432 111.833 117.845 111.833C120.316 111.833 122.025 112.423 122.971 113.604C123.924 114.785 124.401 116.405 124.401 118.466C124.401 118.877 124.375 119.243 124.324 119.566H114.49V117.333H120.87L120.738 117.663C120.738 116.409 120.481 115.522 119.968 115.001C119.462 114.48 118.754 114.22 117.845 114.22C116.95 114.22 116.224 114.502 115.667 115.067C115.109 115.632 114.831 116.768 114.831 118.477C114.831 120.149 115.106 121.278 115.656 121.865C116.213 122.452 116.965 122.745 117.911 122.745V125.132ZM117.911 122.745C118.461 122.745 118.915 122.672 119.275 122.525C119.634 122.378 119.92 122.133 120.133 121.788C120.353 121.443 120.54 121.036 120.694 120.567L124.005 121.502C123.843 122.36 123.491 123.053 122.949 123.581C122.413 124.109 121.764 124.501 121.002 124.758C120.246 125.007 119.216 125.132 117.911 125.132V122.745ZM132.542 125.132C130.078 125.132 128.351 124.538 127.361 123.35C126.378 122.155 125.887 120.53 125.887 118.477C125.887 116.372 126.382 114.741 127.372 113.582C128.362 112.416 130.063 111.833 132.476 111.833C134.947 111.833 136.656 112.423 137.602 113.604C138.555 114.785 139.032 116.405 139.032 118.466C139.032 118.877 139.006 119.243 138.955 119.566H129.121V117.333H135.501L135.369 117.663C135.369 116.409 135.112 115.522 134.599 115.001C134.093 114.48 133.385 114.22 132.476 114.22C131.581 114.22 130.855 114.502 130.298 115.067C129.74 115.632 129.462 116.768 129.462 118.477C129.462 120.149 129.737 121.278 130.287 121.865C130.844 122.452 131.596 122.745 132.542 122.745V125.132ZM132.542 122.745C133.092 122.745 133.546 122.672 133.906 122.525C134.265 122.378 134.551 122.133 134.764 121.788C134.984 121.443 135.171 121.036 135.325 120.567L138.636 121.502C138.474 122.36 138.122 123.053 137.58 123.581C137.044 124.109 136.395 124.501 135.633 124.758C134.877 125.007 133.847 125.132 132.542 125.132V122.745Z" fill="#141414"/>
</svg>
