<svg width="31" height="25" viewBox="0 0 31 25" fill="none" xmlns="http://www.w3.org/2000/svg">
<path d="M29.16 11.7248C27.8359 5.61574 25.8431 2.35508 22.8872 1.46441C22.2658 1.27841 21.6213 1.18549 20.9737 1.18855C20.1178 1.18855 19.3724 1.40134 18.584 1.62687C17.6339 1.89891 16.5544 2.2079 14.9806 2.2079C13.4069 2.2079 12.3268 1.89956 11.3748 1.62751C10.5857 1.40134 9.84092 1.18855 8.98752 1.18855C8.31793 1.18618 7.65127 1.27881 7.00667 1.46378C4.0663 2.35061 2.07484 5.61001 0.731384 11.721C-0.713205 18.2972 -0.00214772 22.4491 2.72534 23.4124C3.09921 23.5469 3.49259 23.6163 3.889 23.6176C5.75748 23.6176 7.25576 22.0293 8.27959 20.729C9.43638 19.2573 10.7905 18.5106 14.9806 18.5106C18.7233 18.5106 20.2721 19.0286 21.6099 20.729C22.4508 21.7981 23.2455 22.546 24.0384 23.0168C25.0928 23.6425 26.1466 23.7813 27.1698 23.4226C28.7817 22.8614 29.7056 21.3775 29.9166 19.0113C30.0771 17.1969 29.8298 14.8135 29.16 11.7248ZM11.9841 11.3821H9.98637V13.4209C9.98637 13.6912 9.88113 13.9505 9.69382 14.1416C9.50649 14.3327 9.25243 14.4402 8.98752 14.4402C8.72261 14.4402 8.46855 14.3327 8.28122 14.1416C8.09391 13.9505 7.98867 13.6912 7.98867 13.4209V11.3821H5.99096C5.72605 11.3821 5.47199 11.2747 5.28467 11.0835C5.09735 10.8924 4.99211 10.6331 4.99211 10.3628C4.99211 10.0924 5.09735 9.83313 5.28467 9.64195C5.47199 9.45079 5.72605 9.3434 5.99096 9.3434H7.98867V7.30468C7.98867 7.03433 8.09391 6.77506 8.28122 6.5839C8.46855 6.39273 8.72261 6.28533 8.98752 6.28533C9.25243 6.28533 9.50649 6.39273 9.69382 6.5839C9.88113 6.77506 9.98637 7.03433 9.98637 7.30468V9.3434H11.9841C12.249 9.3434 12.503 9.45079 12.6903 9.64195C12.8777 9.83313 12.9829 10.0924 12.9829 10.3628C12.9829 10.6331 12.8777 10.8924 12.6903 11.0835C12.503 11.2747 12.249 11.3821 11.9841 11.3821ZM17.2281 11.637C16.9812 11.637 16.7397 11.5623 16.5343 11.4222C16.3291 11.2822 16.1691 11.0832 16.0746 10.8504C15.9801 10.6175 15.9553 10.3613 16.0035 10.1142C16.0517 9.867 16.1706 9.63996 16.3452 9.46176C16.5198 9.28356 16.7422 9.16221 16.9845 9.11304C17.2267 9.06387 17.4777 9.08911 17.7058 9.18555C17.934 9.28199 18.129 9.44531 18.2662 9.65485C18.4034 9.86439 18.4766 10.1107 18.4766 10.3628C18.4766 10.7007 18.3451 11.0248 18.1109 11.2637C17.8767 11.5027 17.5591 11.637 17.2281 11.637ZM19.9749 14.4402C19.7279 14.4402 19.4863 14.3654 19.2809 14.2252C19.0755 14.0851 18.9155 13.8859 18.8211 13.6529C18.7267 13.4199 18.7021 13.1635 18.7505 12.9162C18.7989 12.669 18.9182 12.442 19.0931 12.2638C19.2681 12.0858 19.4909 11.9647 19.7332 11.9158C19.9757 11.8671 20.2268 11.8928 20.4549 11.9897C20.683 12.0867 20.8778 12.2504 21.0146 12.4604C21.1514 12.6703 21.2241 12.9171 21.2235 13.1692C21.2226 13.5066 21.0907 13.8298 20.8567 14.0681C20.6226 14.3063 20.3055 14.4402 19.9749 14.4402ZM19.9749 8.83372C19.728 8.83372 19.4866 8.75898 19.2813 8.61898C19.0759 8.47897 18.9159 8.27997 18.8214 8.04713C18.7269 7.81431 18.7022 7.55811 18.7503 7.31094C18.7985 7.06377 18.9174 6.83674 19.092 6.65854C19.2666 6.48034 19.4891 6.35897 19.7313 6.30982C19.9735 6.26065 20.2245 6.28588 20.4527 6.38232C20.6808 6.47877 20.8758 6.64208 21.0131 6.85162C21.1502 7.06116 21.2235 7.30751 21.2235 7.55953C21.2235 7.89746 21.0919 8.22156 20.8578 8.46051C20.6237 8.69947 20.3061 8.83372 19.9749 8.83372ZM22.7217 11.637C22.4748 11.637 22.2334 11.5623 22.0281 11.4222C21.8227 11.2822 21.6627 11.0832 21.5682 10.8504C21.4737 10.6175 21.449 10.3613 21.4971 10.1142C21.5453 9.867 21.6643 9.63996 21.8389 9.46176C22.0135 9.28356 22.236 9.16221 22.4781 9.11304C22.7203 9.06387 22.9714 9.08911 23.1995 9.18555C23.4277 9.28199 23.6226 9.44531 23.7599 9.65485C23.897 9.86439 23.9703 10.1107 23.9703 10.3628C23.9703 10.7007 23.8388 11.0248 23.6046 11.2637C23.3705 11.5027 23.0529 11.637 22.7217 11.637Z" fill="#08FF96"/>
</svg>
