<svg width="50" height="50" viewBox="0 0 50 50" fill="none" xmlns="http://www.w3.org/2000/svg">
<circle cx="25" cy="25" r="24" stroke="#08FF96" stroke-width="2"/>
<path d="M26.8787 37.875C26.637 38.2917 26.29 38.6376 25.8726 38.8781C25.4551 39.1186 24.9818 39.2451 24.5 39.2451C24.0182 39.2451 23.5449 39.1186 23.1274 38.8781C22.71 38.6376 22.363 38.2917 22.1213 37.875M32.75 20C32.75 17.812 31.8808 15.7135 30.3336 14.1664C28.7865 12.6192 26.688 11.75 24.5 11.75C22.312 11.75 20.2135 12.6192 18.6664 14.1664C17.1192 15.7135 16.25 17.812 16.25 20C16.25 29.625 12.125 32.375 12.125 32.375H36.875C36.875 32.375 32.75 29.625 32.75 20Z" stroke="#08FF96" stroke-width="2" stroke-linecap="round" stroke-linejoin="round"/>
</svg>
