<svg width="69" height="69" viewBox="0 0 69 69" fill="none" xmlns="http://www.w3.org/2000/svg">
<path d="M43.1748 32.7204C50.7844 19.3955 50.7844 2.02148 50.7844 2.02148H18.2158C18.2158 2.02148 18.216 19.3955 25.8254 32.7204C27.2574 35.2281 28.1381 38.0222 28.3061 40.9051C28.5311 44.7642 27.5397 49.259 22.287 50.8744H46.7134C41.4605 49.2591 40.4693 44.7642 40.6942 40.9051C40.8621 38.0222 41.7428 35.2281 43.1748 32.7204Z" stroke="#08FF96" stroke-width="3" stroke-miterlimit="10" stroke-linejoin="round"/>
<path d="M50.7855 50.874H18.2168V66.9781H50.7855V50.874Z" stroke="#08FF96" stroke-width="3" stroke-miterlimit="10" stroke-linejoin="round"/>
<path d="M18.2162 6.0918H10.0741L6.00293 11.3452C6.00293 11.3452 6.61665 19.3185 25.5717 34.0821C29.4732 37.1208 26.4308 40.0781 24.1937 41.2256" stroke="#08FF96" stroke-width="3" stroke-miterlimit="10" stroke-linecap="round" stroke-linejoin="round"/>
<path d="M50.7852 6.0918H58.9273L62.9985 11.3454C62.9985 11.3454 62.3847 19.3186 43.4297 34.0822C39.5282 37.1209 42.5706 40.0782 44.8077 41.2257" stroke="#08FF96" stroke-width="3" stroke-miterlimit="10" stroke-linecap="round" stroke-linejoin="round"/>
<path d="M26.3584 59.0176H42.6427" stroke="#08FF96" stroke-width="3" stroke-miterlimit="10" stroke-linecap="round" stroke-linejoin="round"/>
<path d="M28.3115 42.7334H40.7291" stroke="#08FF96" stroke-width="3" stroke-miterlimit="10" stroke-linejoin="round"/>
</svg>
