<svg width="20" height="15" viewBox="0 0 20 15" fill="none" xmlns="http://www.w3.org/2000/svg">
<path d="M19.2559 1.77577C18.5493 2.07692 17.7964 2.27654 17.0115 2.37346C17.819 1.905 18.4353 1.16885 18.725 0.281538C17.9722 0.717692 17.1409 1.02577 16.255 1.19769C15.5402 0.458077 14.5213 0 13.4098 0C11.2533 0 9.51717 1.70077 9.51717 3.78577C9.51717 4.08577 9.5433 4.37423 9.60742 4.64885C6.36911 4.49538 3.50367 2.98731 1.57873 0.69C1.24267 1.25654 1.04555 1.905 1.04555 2.60308C1.04555 3.91385 1.74023 5.07577 2.77573 5.74846C2.14992 5.73692 1.53598 5.56038 1.01586 5.28231C1.01586 5.29385 1.01586 5.30885 1.01586 5.32385C1.01586 7.16308 2.36605 8.69077 4.13661 9.04269C3.81955 9.12692 3.47398 9.16731 3.11536 9.16731C2.86598 9.16731 2.61423 9.15346 2.37792 9.10269C2.88261 10.6015 4.31473 11.7035 6.01761 11.7392C4.69236 12.7465 3.00967 13.3535 1.18805 13.3535C0.868609 13.3535 0.562234 13.3396 0.255859 13.3015C1.9813 14.3827 4.02617 15 6.23136 15C13.3991 15 17.3179 9.23077 17.3179 4.23C17.3179 4.06269 17.3119 3.90115 17.3036 3.74077C18.0767 3.20769 18.7262 2.54192 19.2559 1.77577Z" fill="white"/>
</svg>
