<svg width="36" height="37" viewBox="0 0 36 37" fill="none" xmlns="http://www.w3.org/2000/svg">
<rect x="1" y="1.79492" width="34" height="34" rx="17" stroke="#FF6B00" stroke-width="2"/>
<path d="M12.9014 26.7949V10.7949H18.3076C19.5576 10.7949 20.5837 11.0085 21.3857 11.4355C22.1878 11.8574 22.7816 12.4382 23.167 13.1777C23.5524 13.9173 23.7451 14.7585 23.7451 15.7012C23.7451 16.6439 23.5524 17.4798 23.167 18.209C22.7816 18.9382 22.1904 19.5111 21.3936 19.9277C20.5967 20.3392 19.5785 20.5449 18.3389 20.5449H13.9639V18.7949H18.2764C19.1305 18.7949 19.818 18.6699 20.3389 18.4199C20.8649 18.1699 21.2451 17.8158 21.4795 17.3574C21.7191 16.8939 21.8389 16.3418 21.8389 15.7012C21.8389 15.0605 21.7191 14.5007 21.4795 14.0215C21.2399 13.5423 20.8571 13.1725 20.3311 12.9121C19.805 12.6465 19.1097 12.5137 18.2451 12.5137H14.8389V26.7949H12.9014ZM20.4326 19.6074L24.3701 26.7949H22.1201L18.2451 19.6074H20.4326Z" fill="white"/>
</svg>
