<svg width="25" height="24" viewBox="0 0 25 24" fill="none" xmlns="http://www.w3.org/2000/svg">
<path d="M24.5107 23.1093C24.4288 23.2514 24.3107 23.3694 24.1686 23.4514C24.0266 23.5334 23.8653 23.5765 23.7013 23.5765H1.27526C1.11131 23.5763 0.9503 23.533 0.808384 23.451C0.666468 23.3689 0.548645 23.251 0.466746 23.1089C0.384847 22.9669 0.341755 22.8059 0.341797 22.6419C0.341839 22.4779 0.385014 22.3169 0.466986 22.1749C2.24589 19.0995 4.98724 16.8943 8.18644 15.8489C6.60398 14.9069 5.37449 13.4713 4.68681 11.7629C3.99913 10.0545 3.89126 8.16751 4.3798 6.39182C4.86832 4.61614 5.92623 3.04992 7.39106 1.93368C8.85588 0.817427 10.6466 0.212891 12.4883 0.212891C14.3299 0.212891 16.1207 0.817427 17.5855 1.93368C19.0503 3.04992 20.1082 4.61614 20.5968 6.39182C21.0853 8.16751 20.9774 10.0545 20.2898 11.7629C19.602 13.4713 18.3726 14.9069 16.7901 15.8489C19.9893 16.8943 22.7307 19.0995 24.5095 22.1749C24.5917 22.3169 24.6351 22.4779 24.6353 22.642C24.6356 22.806 24.5926 22.9671 24.5107 23.1093Z" fill="#08FF96"/>
</svg>
