<svg width="36" height="37" viewBox="0 0 36 37" fill="none" xmlns="http://www.w3.org/2000/svg">
<rect x="1" y="1.79492" width="34" height="34" rx="17" stroke="#08FF96" stroke-width="2"/>
<path d="M21.6729 14.7949C21.5791 14.0033 21.1989 13.3887 20.5322 12.9512C19.8656 12.5137 19.0479 12.2949 18.0791 12.2949C17.3708 12.2949 16.751 12.4095 16.2197 12.6387C15.6937 12.8678 15.2822 13.1829 14.9854 13.584C14.6937 13.985 14.5479 14.4408 14.5479 14.9512C14.5479 15.3783 14.6494 15.7454 14.8525 16.0527C15.0609 16.3548 15.3265 16.6074 15.6494 16.8105C15.9723 17.0085 16.3109 17.1725 16.665 17.3027C17.0192 17.4277 17.3447 17.5293 17.6416 17.6074L19.2666 18.0449C19.6833 18.1543 20.1468 18.3053 20.6572 18.498C21.1729 18.6908 21.665 18.9538 22.1338 19.2871C22.6077 19.6152 22.9984 20.0371 23.3057 20.5527C23.613 21.0684 23.7666 21.7012 23.7666 22.4512C23.7666 23.3158 23.54 24.097 23.0869 24.7949C22.639 25.4928 21.9827 26.0475 21.1182 26.459C20.2588 26.8704 19.2145 27.0762 17.9854 27.0762C16.8395 27.0762 15.8473 26.8913 15.0088 26.5215C14.1755 26.1517 13.5192 25.6361 13.04 24.9746C12.5661 24.3132 12.2979 23.5449 12.2354 22.6699H14.2354C14.2874 23.2741 14.4906 23.7741 14.8447 24.1699C15.2041 24.5605 15.6572 24.8522 16.2041 25.0449C16.7562 25.2324 17.3499 25.3262 17.9854 25.3262C18.7249 25.3262 19.389 25.2064 19.9775 24.9668C20.5661 24.722 21.0322 24.3835 21.376 23.9512C21.7197 23.5137 21.8916 23.0033 21.8916 22.4199C21.8916 21.8887 21.7432 21.4564 21.4463 21.123C21.1494 20.7897 20.7588 20.5189 20.2744 20.3105C19.79 20.1022 19.2666 19.9199 18.7041 19.7637L16.7354 19.2012C15.4854 18.8418 14.4958 18.3288 13.7666 17.6621C13.0374 16.9954 12.6729 16.123 12.6729 15.0449C12.6729 14.1491 12.915 13.3678 13.3994 12.7012C13.889 12.0293 14.5452 11.5085 15.3682 11.1387C16.1963 10.7637 17.1208 10.5762 18.1416 10.5762C19.1729 10.5762 20.0895 10.7611 20.8916 11.1309C21.6937 11.4954 22.3291 11.9954 22.7979 12.6309C23.2718 13.2663 23.5218 13.9876 23.5479 14.7949H21.6729Z" fill="white"/>
</svg>
