<svg width="58" height="58" viewBox="0 0 58 58" fill="none" xmlns="http://www.w3.org/2000/svg">
<circle cx="29" cy="29" r="29" fill="#08FF96"/>
<path d="M29.0001 30.1788C24.0205 30.1788 19.9678 26.1261 19.9678 21.1466C19.9678 16.167 24.0205 12.1143 29.0001 12.1143C33.9796 12.1143 38.0324 16.167 38.0324 21.1466C38.0324 26.1261 33.9796 30.1788 29.0001 30.1788ZM29.0001 14.4705C25.3243 14.4705 22.324 17.4708 22.324 21.1466C22.324 24.8223 25.3243 27.8226 29.0001 27.8226C32.6758 27.8226 35.6761 24.8223 35.6761 21.1466C35.6761 17.4708 32.6758 14.4705 29.0001 14.4705Z" fill="#141414"/>
<path d="M35.0002 45.887C34.4033 45.887 33.8378 45.6671 33.4294 45.2586C32.9424 44.7717 32.7225 44.0648 32.8325 43.3265L33.1309 41.2059C33.2095 40.6561 33.5393 40.0121 33.9321 39.6036L39.4928 34.0429C41.7234 31.8123 43.6869 33.0847 44.6451 34.0429C45.462 34.8597 45.8861 35.7394 45.8861 36.6191C45.8861 37.5144 45.4777 38.347 44.6451 39.1795L39.0842 44.7403C38.6915 45.133 38.0319 45.4628 37.4821 45.5414L35.3614 45.8397C35.2357 45.8711 35.1259 45.887 35.0002 45.887ZM42.0533 35.1582C41.7705 35.1582 41.5192 35.3467 41.1579 35.708L35.5971 41.2687C35.55 41.3158 35.4715 41.4729 35.4715 41.5358L35.1887 43.4993L37.1523 43.2166C37.2151 43.2008 37.372 43.1223 37.4192 43.0752L42.9801 37.5144C43.2314 37.2631 43.5299 36.9018 43.5299 36.6191C43.5299 36.3834 43.3413 36.0536 42.9801 35.708C42.6031 35.331 42.3203 35.1582 42.0533 35.1582Z" fill="#141414"/>
<path d="M43.0129 40.3423C42.903 40.3423 42.793 40.3267 42.6988 40.2953C40.6253 39.7141 38.9759 38.0647 38.3947 35.9912C38.2219 35.3629 38.5832 34.7189 39.2115 34.5461C39.8399 34.3733 40.4839 34.7346 40.6567 35.3629C41.018 36.651 42.039 37.672 43.3271 38.0333C43.9554 38.2061 44.3167 38.8659 44.1439 39.4785C44.0026 39.9969 43.5313 40.3423 43.0129 40.3423Z" fill="#141414"/>
<path d="M15.5072 45.8863C14.8632 45.8863 14.3291 45.3522 14.3291 44.7081C14.3291 38.0007 20.9109 32.5342 29.0007 32.5342C30.713 32.5342 32.4095 32.7855 33.996 33.2568C34.6243 33.4453 34.9699 34.105 34.7814 34.7176C34.5929 35.346 33.9332 35.6916 33.3205 35.5031C31.9382 35.0946 30.493 34.8747 29.0007 34.8747C22.2147 34.8747 16.6854 39.2731 16.6854 44.6924C16.6854 45.3522 16.1513 45.8863 15.5072 45.8863Z" fill="#141414"/>
</svg>
