<svg width="33" height="34" viewBox="0 0 33 34" fill="none" xmlns="http://www.w3.org/2000/svg">
<path d="M18.8787 29.375C18.637 29.7917 18.29 30.1376 17.8726 30.3781C17.4551 30.6186 16.9818 30.7451 16.5 30.7451C16.0182 30.7451 15.5449 30.6186 15.1274 30.3781C14.71 30.1376 14.363 29.7917 14.1213 29.375M24.75 11.5C24.75 9.31196 23.8808 7.21354 22.3336 5.66637C20.7865 4.11919 18.688 3.25 16.5 3.25C14.312 3.25 12.2135 4.11919 10.6664 5.66637C9.11919 7.21354 8.25 9.31196 8.25 11.5C8.25 21.125 4.125 23.875 4.125 23.875H28.875C28.875 23.875 24.75 21.125 24.75 11.5Z" stroke="white" stroke-width="2" stroke-linecap="round" stroke-linejoin="round"/>
</svg>
