<svg width="46" height="46" viewBox="0 0 46 46" fill="none" xmlns="http://www.w3.org/2000/svg">
<circle opacity="0.2" cx="23" cy="23" r="23" fill="#141414"/>
<g clip-path="url(#clip0_32_118)">
<path d="M32.3184 35.1748H19.3691C17.7939 35.1748 16.5127 33.8936 16.5127 32.3184V19.3691C16.5127 17.7939 17.7939 16.5127 19.3691 16.5127H32.3184C33.8936 16.5127 35.1748 17.7939 35.1748 19.3691V32.3184C35.1748 33.8936 33.8936 35.1748 32.3184 35.1748ZM19.3691 18.417C18.8441 18.417 18.417 18.8441 18.417 19.3691V32.3184C18.417 32.8434 18.8441 33.2705 19.3691 33.2705H32.3184C32.8434 33.2705 33.2705 32.8434 33.2705 32.3184V19.3691C33.2705 18.8441 32.8434 18.417 32.3184 18.417H19.3691ZM14.6084 27.5576H13.6562C13.1312 27.5576 12.7041 27.1305 12.7041 26.6055V13.6562C12.7041 13.1312 13.1312 12.7041 13.6562 12.7041H26.6055C27.1305 12.7041 27.5576 13.1312 27.5576 13.6562V14.5608H29.4619V13.6562C29.4619 12.081 28.1807 10.7998 26.6055 10.7998H13.6562C12.081 10.7998 10.7998 12.081 10.7998 13.6562V26.6055C10.7998 28.1807 12.081 29.4619 13.6562 29.4619H14.6084V27.5576Z" fill="white"/>
</g>
<defs>
<clipPath id="clip0_32_118">
<rect width="26" height="26" fill="white" transform="translate(10 10)"/>
</clipPath>
</defs>
</svg>
