<svg width="46" height="46" viewBox="0 0 46 46" fill="none" xmlns="http://www.w3.org/2000/svg">
<circle opacity="0.2" cx="23" cy="23" r="23" fill="#141414"/>
<g clip-path="url(#clip0_32_125)">
<path d="M32.2429 11.8538C30.8821 10.4953 28.6783 10.4953 27.3175 11.8538L26.0846 13.0935L12.96 26.2111L12.9321 26.2392C12.9254 26.2459 12.9254 26.2531 12.9182 26.2531C12.9042 26.274 12.8833 26.2947 12.8696 26.3157C12.8696 26.3226 12.8624 26.3226 12.8624 26.3296C12.8485 26.3505 12.8417 26.3645 12.8275 26.3854C12.8208 26.3924 12.8208 26.3991 12.8138 26.4063C12.8068 26.4272 12.7999 26.4412 12.7927 26.4621C12.7927 26.4688 12.7859 26.4688 12.7859 26.476L9.87397 35.2326C9.78855 35.4818 9.85349 35.7579 10.0411 35.9429C10.1729 36.073 10.3508 36.1458 10.5358 36.1452C10.6114 36.1439 10.6863 36.1321 10.7587 36.1103L19.5085 33.1914C19.5152 33.1914 19.5152 33.1914 19.5224 33.1846C19.5444 33.1781 19.5655 33.1687 19.5849 33.1565C19.5904 33.1559 19.5952 33.1535 19.5991 33.1498C19.6198 33.1358 19.6477 33.1217 19.6686 33.1077C19.6893 33.094 19.7105 33.0731 19.7314 33.0591C19.7383 33.0519 19.7451 33.0519 19.7451 33.0452C19.7523 33.0382 19.7662 33.0314 19.7732 33.0173L34.1307 18.6598C35.4891 17.299 35.4891 15.0952 34.1307 13.7346L32.2429 11.8538ZM19.2855 31.5542L14.437 26.7059L26.5722 14.5707L31.4207 19.419L19.2855 31.5542ZM13.7541 27.9947L17.9898 32.2302L11.6295 34.3478L13.7541 27.9947ZM33.1486 17.6844L32.4101 18.4299L27.5613 13.5812L28.307 12.8359C29.1227 12.0209 30.4447 12.0209 31.2606 12.8359L33.1553 14.7307C33.9649 15.55 33.9618 16.869 33.1486 17.6844Z" fill="white"/>
</g>
<defs>
<clipPath id="clip0_32_125">
<rect width="27" height="27" fill="white" transform="translate(9 10)"/>
</clipPath>
</defs>
</svg>
