<svg width="41" height="41" viewBox="0 0 41 41" fill="none" xmlns="http://www.w3.org/2000/svg">
<rect x="0.540527" width="40.4324" height="40.4324" rx="4.75676" fill="white"/>
<g clip-path="url(#clip0_50_54)">
<path d="M27.0742 32.108H14.4391C11.3654 32.108 8.86475 29.6074 8.86475 26.5337V13.8985C8.86475 10.8249 11.3654 8.32422 14.4391 8.32422H27.0742C30.1479 8.32422 32.6485 10.8249 32.6485 13.8985V26.5337C32.6485 29.6074 30.1479 32.108 27.0742 32.108ZM14.4391 10.1823C12.3899 10.1823 10.7229 11.8494 10.7229 13.8985V26.5337C10.7229 28.5828 12.3899 30.2499 14.4391 30.2499H27.0742C29.1233 30.2499 30.7904 28.5828 30.7904 26.5337V13.8985C30.7904 11.8494 29.1233 10.1823 27.0742 10.1823H14.4391ZM27.3065 12.505C26.6651 12.505 26.1452 13.0249 26.1452 13.6663C26.1452 14.3077 26.6651 14.8276 27.3065 14.8276C27.9478 14.8276 28.4678 14.3077 28.4678 13.6663C28.4678 13.0249 27.9478 12.505 27.3065 12.505ZM20.7566 26.255C17.4268 26.255 14.7178 23.546 14.7178 20.2161C15.0495 12.2047 26.465 12.2071 26.7955 20.2162C26.7955 23.546 24.0865 26.255 20.7566 26.255ZM20.7566 16.0354C18.4514 16.0354 16.5759 17.9108 16.5759 20.2161C16.8056 25.7624 24.7086 25.7608 24.9374 20.2161C24.9374 17.9108 23.0619 16.0354 20.7566 16.0354Z" fill="#141414"/>
</g>
<defs>
<clipPath id="clip0_50_54">
<rect width="23.7838" height="23.7838" fill="white" transform="translate(8.86475 8.32422)"/>
</clipPath>
</defs>
</svg>
