<svg width="30" height="31" viewBox="0 0 30 31" fill="none" xmlns="http://www.w3.org/2000/svg">
<path fill-rule="evenodd" clip-rule="evenodd" d="M1.63149 5.22212C1.41274 4.34837 1.72399 3.42837 2.42649 2.86462C3.12899 2.30087 4.09524 2.19837 4.90024 2.60087L27.1627 13.7321C27.944 14.1221 28.4377 14.9209 28.4377 15.7946C28.4377 16.6684 27.944 17.4671 27.1627 17.8571L4.90024 28.9884C4.09524 29.3909 3.12899 29.2884 2.42649 28.7246C1.72399 28.1609 1.41274 27.2409 1.63149 26.3671L4.27524 15.7946L1.63149 5.22212ZM3.45024 4.76837L6.15024 15.5671C6.18774 15.7171 6.18774 15.8721 6.15024 16.0221L3.45024 26.8209C3.41024 26.9846 3.46774 27.1571 3.59899 27.2621C3.73024 27.3671 3.91149 27.3871 4.06149 27.3121L26.324 16.1796C26.4702 16.1071 26.5627 15.9584 26.5627 15.7946C26.5627 15.6309 26.4702 15.4821 26.324 15.4096L4.06149 4.27712C3.91149 4.20212 3.73024 4.22212 3.59899 4.32712C3.46774 4.43212 3.41024 4.60462 3.45024 4.76837Z" fill="#08FF96"/>
<path fill-rule="evenodd" clip-rule="evenodd" d="M5.46094 16.7324C4.94344 16.7324 4.52344 16.3124 4.52344 15.7949C4.52344 15.2774 4.94344 14.8574 5.46094 14.8574H16.0859C16.6034 14.8574 17.0234 15.2774 17.0234 15.7949C17.0234 16.3124 16.6034 16.7324 16.0859 16.7324H5.46094Z" fill="#08FF96"/>
</svg>
