<svg width="41" height="41" viewBox="0 0 41 41" fill="none" xmlns="http://www.w3.org/2000/svg">
<rect x="0.513672" width="40.4324" height="40.4324" rx="4.75676" fill="white"/>
<path d="M30.9368 14.5368C31.4325 16.3577 31.4325 20.2598 31.4325 20.2598C31.4325 20.2598 31.4325 24.1184 30.9368 25.9827C30.689 27.0233 29.9041 27.8037 28.9541 28.0638C27.1779 28.5407 20.1558 28.5407 20.1558 28.5407C20.1558 28.5407 13.0924 28.5407 11.3163 28.0638C10.3662 27.8037 9.58141 27.0233 9.33357 25.9827C8.83789 24.1184 8.83789 20.2598 8.83789 20.2598C8.83789 20.2598 8.83789 16.3577 9.33357 14.5368C9.58141 13.4963 10.3662 12.6725 11.3163 12.4124C13.0924 11.8921 20.1558 11.8921 20.1558 11.8921C20.1558 11.8921 27.1779 11.8921 28.9541 12.4124C29.9041 12.6725 30.689 13.4963 30.9368 14.5368ZM17.8427 23.7716L23.7082 20.2598L17.8427 16.7479V23.7716Z" fill="#141414"/>
</svg>
