<svg width="31" height="31" viewBox="0 0 31 31" fill="none" xmlns="http://www.w3.org/2000/svg">
<mask id="mask0_40_1534" style="mask-type:luminance" maskUnits="userSpaceOnUse" x="0" y="0" width="31" height="31">
<path d="M0 1.90735e-06H31V31H0V1.90735e-06Z" fill="white"/>
</mask>
<g mask="url(#mask0_40_1534)">
<path d="M20.4864 6.27287H25.0368C26.2244 6.27287 27.1871 5.31012 27.1871 4.12249C27.1871 2.93493 26.2244 1.97217 25.0368 1.97217H11.3367L6.64844 3.74044V6.64942V18.5185H9.01098L15.1501 25.6207L15.6847 28.5659C15.7612 28.9875 16.1283 29.2939 16.5569 29.2939H17.6062C19.1285 29.2939 20.3626 28.0598 20.3626 26.5375C20.3626 25.3898 20.1381 24.2533 19.7017 23.1919L18.1227 19.175H18.5269" stroke="white" stroke-width="1.8" stroke-miterlimit="10"/>
<path d="M22.2459 14.8741H27.0237C28.2113 14.8741 29.1741 15.8369 29.1741 17.0245C29.1741 18.212 28.2113 19.1748 27.0237 19.1748H18.5254" stroke="white" stroke-width="1.8" stroke-miterlimit="10"/>
<path d="M23.3906 14.874H27.941C29.1287 14.874 30.0914 13.9113 30.0914 12.7237C30.0914 11.5361 29.1287 10.5733 27.941 10.5733H23.3906" stroke="white" stroke-width="1.8" stroke-miterlimit="10"/>
<path d="M22.1016 10.5732H26.652C27.8396 10.5732 28.8023 9.61049 28.8023 8.42286C28.8023 7.23529 27.8396 6.27254 26.652 6.27254H22.1016" stroke="white" stroke-width="1.8" stroke-miterlimit="10"/>
<path d="M6.64708 1.70929H0.908203V20.252H6.64708V1.70929Z" stroke="white" stroke-width="1.8" stroke-miterlimit="10"/>
</g>
</svg>
