<svg width="41" height="41" viewBox="0 0 41 41" fill="none" xmlns="http://www.w3.org/2000/svg">
<rect x="0.0541992" width="40.4324" height="40.4324" rx="4.75676" fill="white"/>
<path d="M13.2592 24.9656C13.7073 27.116 15.453 28.8609 17.6022 29.3086C18.0014 29.3916 18.4024 29.4324 18.7997 29.4324C20.1006 29.4324 21.3618 28.9936 22.3818 28.1648C23.7134 27.0819 24.4772 25.4771 24.4772 23.7626V15.999C25.3929 16.5402 26.4564 16.8564 27.5949 16.8564V13.8203C25.8759 13.8203 24.4772 12.4216 24.4772 10.7026H21.4411C21.4411 10.7302 21.4448 10.7567 21.4452 10.7842H21.4411V23.7626C21.4411 24.5594 21.086 25.3051 20.4664 25.8092C19.8385 26.3191 19.0402 26.5074 18.2215 26.3362C17.2368 26.1308 16.437 25.3311 16.2317 24.3459C16.0608 23.5269 16.2479 22.73 16.759 22.1014C17.2627 21.4818 18.0088 21.1267 18.8056 21.1267V18.0906C17.0907 18.0906 15.4859 18.8541 14.4033 20.1861C13.3208 21.5181 12.9038 23.26 13.2592 24.9656Z" fill="#141414"/>
</svg>
